<?xml version="1.0" encoding="UTF-8" standalone="no" ?>
<!DOCTYPE svg PUBLIC "-//W3C//DTD SVG 1.1//EN" "http://www.w3.org/Graphics/SVG/1.1/DTD/svg11.dtd">
<svg xmlns="http://www.w3.org/2000/svg" xmlns:xlink="http://www.w3.org/1999/xlink" version="1.1" width="1280" height="1024" viewBox="0 0 1280 1024" xml:space="preserve">
<desc>Created with Fabric.js 5.3.0</desc>
<defs>
</defs>
<g transform="matrix(1 0 0 1 640 512)" id="background-logo"  >
<rect style="stroke: none; stroke-width: 0; stroke-dasharray: none; stroke-linecap: butt; stroke-dashoffset: 0; stroke-linejoin: miter; stroke-miterlimit: 4; fill: rgb(255,255,255); fill-opacity: 0; fill-rule: nonzero; opacity: 1;"  paint-order="stroke"  x="-640" y="-512" rx="0" ry="0" width="1280" height="1024" />
</g>
<g transform="matrix(1.9211538461538462 0 0 1.9211538461538462 640 377.75185730697797)" id="logo-logo"  >
<g style=""  paint-order="stroke"   >
		<g transform="matrix(0.5983578614204248 0 0 -0.5983578614204247 0 95.69904687522256)"  >
<linearGradient id="SVGID_1_4_1222397" gradientUnits="userSpaceOnUse" gradientTransform="matrix(1 0 0 1 7.032485723080384 12.035200000000003)"  x1="0" y1="0" x2="0" y2="111">
<stop offset="0%" style="stop-color:rgb(48,35,174);stop-opacity: 1"/>
<stop offset="100%" style="stop-color:rgb(200,109,215);stop-opacity: 1"/>
</linearGradient>
<path style="stroke: none; stroke-width: 1; stroke-dasharray: none; stroke-linecap: butt; stroke-dashoffset: 0; stroke-linejoin: miter; stroke-miterlimit: 4; fill: url(#SVGID_1_4_1222397); fill-rule: evenodd; opacity: 1;"  paint-order="stroke"  transform=" translate(-256.3789114483657, -67.68376262752027)" d="M 484.566 122.805 L 267.195 62.9453 C 266.133 62.652300000000004 265.129 62.25 264.191 61.75 L 263.883 62.4375 L 255.82799999999997 62.1289 L 247.77299999999997 62.4375 L 247.65999999999997 62.1914 C 246.98799999999997 62.492200000000004 246.29299999999998 62.7461 245.56299999999996 62.9453 L 28.1914 122.805 C 20.382800000000003 124.95700000000001 12.2344 120.32400000000001 10.085900000000002 112.52000000000001 L 7.55859 103.348 C 5.41016 95.543 10.0391 87.3906 17.8477 85.2422 L 231.531 26.3984 L 231.41 26.1367 C 233.742 17.4375 241.625 12.566400000000002 255.828 12.035200000000001 C 270.027 12.566400000000002 277.914 17.4375 280.246 26.1289 L 494.91 85.2422 C 502.71900000000005 87.39059999999999 507.348 95.54299999999999 505.199 103.348 L 502.672 112.52 C 500.523 120.324 492.375 124.957 484.56600000000003 122.80499999999999" stroke-linecap="round" />
</g>
		<g transform="matrix(0.5983578614204248 0 0 -0.5983578614204247 0 95.69904687522256)"  >
<path style="stroke: rgb(89,58,8); stroke-width: 4.20723009; stroke-dasharray: none; stroke-linecap: round; stroke-dashoffset: 0; stroke-linejoin: round; stroke-miterlimit: 22.92560005; fill: none; fill-rule: nonzero; opacity: 1;"  paint-order="stroke"  transform=" translate(-256.3789114483657, -67.68376262752027)" d="M 484.566 122.805 L 267.195 62.9453 C 266.133 62.652300000000004 265.129 62.25 264.191 61.75 L 263.883 62.4375 L 255.82799999999997 62.1289 L 247.77299999999997 62.4375 L 247.65999999999997 62.1914 C 246.98799999999997 62.492200000000004 246.29299999999998 62.7461 245.56299999999996 62.9453 L 28.1914 122.805 C 20.382800000000003 124.95700000000001 12.2344 120.32400000000001 10.085900000000002 112.52000000000001 L 7.55859 103.348 C 5.41016 95.543 10.0391 87.3906 17.8477 85.2422 L 231.531 26.3984 L 231.41 26.1367 C 233.742 17.4375 241.625 12.566400000000002 255.828 12.035200000000001 C 270.027 12.566400000000002 277.914 17.4375 280.246 26.1289 L 494.91 85.2422 C 502.71900000000005 87.39059999999999 507.348 95.54299999999999 505.199 103.348 L 502.672 112.52 C 500.523 120.324 492.375 124.957 484.56600000000003 122.80499999999999 z" stroke-linecap="round" />
</g>
		<g transform="matrix(0.5983578614204248 0 0 -0.5983578614204247 -66.49841802549929 67.08668845991747)"  >
<path style="stroke: none; stroke-width: 1; stroke-dasharray: none; stroke-linecap: butt; stroke-dashoffset: 0; stroke-linejoin: miter; stroke-miterlimit: 4; fill: rgb(255,238,211); fill-rule: evenodd; opacity: 1;"  paint-order="stroke"  transform=" translate(-145.24405000000002, -115.5019)" d="M 34.1641 121.16 L 46.9219 168.785 L 256.324 112.672 L 256.324 62.2188 L 34.1641 121.16" stroke-linecap="round" />
</g>
		<g transform="matrix(0.5983578614204248 0 0 -0.5983578614204247 -66.49841802549929 67.08668845991747)"  >
<path style="stroke: rgb(89,58,8); stroke-width: 4.2072401; stroke-dasharray: none; stroke-linecap: round; stroke-dashoffset: 0; stroke-linejoin: round; stroke-miterlimit: 22.92560005; fill: none; fill-rule: nonzero; opacity: 1;"  paint-order="stroke"  transform=" translate(-145.24405000000002, -115.5019)" d="M 34.1641 121.16 L 46.9219 168.785 L 256.324 112.672 L 256.324 62.2188 Z" stroke-linecap="round" />
</g>
		<g transform="matrix(0.5983578614204248 0 0 -0.5983578614204247 66.43273454976912 67.08668845991747)"  >
<path style="stroke: none; stroke-width: 1; stroke-dasharray: none; stroke-linecap: butt; stroke-dashoffset: 0; stroke-linejoin: miter; stroke-miterlimit: 4; fill: rgb(255,238,211); fill-rule: evenodd; opacity: 1;"  paint-order="stroke"  transform=" translate(-367.404, -115.5019)" d="M 478.484 121.16 L 465.727 168.785 L 256.324 112.672 L 256.324 62.2188 L 478.48400000000004 121.16" stroke-linecap="round" />
</g>
		<g transform="matrix(0.5983578614204248 0 0 -0.5983578614204247 66.43273454976912 67.08668845991747)"  >
<path style="stroke: rgb(89,58,8); stroke-width: 4.2072401; stroke-dasharray: none; stroke-linecap: round; stroke-dashoffset: 0; stroke-linejoin: round; stroke-miterlimit: 22.92560005; fill: none; fill-rule: nonzero; opacity: 1;"  paint-order="stroke"  transform=" translate(-367.404, -115.5019)" d="M 478.484 121.16 L 465.727 168.785 L 256.324 112.672 L 256.324 62.2188 Z" stroke-linecap="round" />
</g>
		<g transform="matrix(0.5983578614204248 0 0 -0.5983578614204247 -5.552438707377291 42.78312736681795)"  >
<path style="stroke: rgb(89,58,8); stroke-width: 4.2072401; stroke-dasharray: none; stroke-linecap: round; stroke-dashoffset: 0; stroke-linejoin: round; stroke-miterlimit: 22.92560005; fill: none; fill-rule: nonzero; opacity: 1;"  paint-order="stroke"  transform=" translate(-247.09945000000002, -156.119)" d="M 447.277 199.566 L 256.324 112.672 C 213.656 194.305 141.211 141.172 46.92190000000002 168.785" stroke-linecap="round" />
</g>
		<g transform="matrix(0.5983578614204248 0 0 -0.5983578614204247 -0.0012035659425464473 -59.005307334887846)"  >
<linearGradient id="SVGID_1_4_1222398" gradientUnits="userSpaceOnUse" gradientTransform="matrix(1 0 0 1 76.21479999999997 210.16799999999995)"  x1="0" y1="0" x2="0" y2="232">
<stop offset="0%" style="stop-color:rgb(48,35,174);stop-opacity: 1"/>
<stop offset="100%" style="stop-color:rgb(200,109,215);stop-opacity: 1"/>
</linearGradient>
<path style="stroke: none; stroke-width: 1; stroke-dasharray: none; stroke-linecap: butt; stroke-dashoffset: 0; stroke-linejoin: miter; stroke-miterlimit: 4; fill: url(#SVGID_1_4_1222398); fill-rule: evenodd; opacity: 1;"  paint-order="stroke"  transform=" translate(-256.3769, -326.2319729624896)" d="M 106.336 323.344 L 115.539 323.344 C 145.57 474.082 366.211 489.621 402.03499999999997 323.344 L 406.414 323.344 C 422.984 323.344 436.539 309.78499999999997 436.539 293.219 L 436.539 240.289 C 436.539 223.72299999999998 422.984 210.16799999999998 406.414 210.16799999999998 L 367.996 210.16799999999998 L 367.996 323.344 L 381.902 323.344 C 335.05899999999997 442.758 184.35899999999998 455.883 138.78099999999998 323.344 L 144.75799999999998 323.344 L 144.75799999999998 210.168 L 106.33599999999998 210.168 C 89.77339999999998 210.168 76.21479999999998 223.723 76.21479999999998 240.28900000000002 L 76.21479999999998 293.219 C 76.21479999999998 309.78499999999997 89.76949999999998 323.344 106.33599999999998 323.344" stroke-linecap="round" />
</g>
		<g transform="matrix(0.5983578614204248 0 0 -0.5983578614204247 -0.0012035659425464473 -59.005307334887846)"  >
<path style="stroke: rgb(89,58,8); stroke-width: 6.02454996; stroke-dasharray: none; stroke-linecap: round; stroke-dashoffset: 0; stroke-linejoin: round; stroke-miterlimit: 22.92560005; fill: none; fill-rule: nonzero; opacity: 1;"  paint-order="stroke"  transform=" translate(-256.3769, -326.2319729624896)" d="M 106.336 323.344 L 115.539 323.344 C 145.57 474.082 366.211 489.621 402.03499999999997 323.344 L 406.414 323.344 C 422.984 323.344 436.539 309.78499999999997 436.539 293.219 L 436.539 240.289 C 436.539 223.72299999999998 422.984 210.16799999999998 406.414 210.16799999999998 L 367.996 210.16799999999998 L 367.996 323.344 L 381.902 323.344 C 335.05899999999997 442.758 184.35899999999998 455.883 138.78099999999998 323.344 L 144.75799999999998 323.344 L 144.75799999999998 210.168 L 106.33599999999998 210.168 C 89.77339999999998 210.168 76.21479999999998 223.723 76.21479999999998 240.28900000000002 L 76.21479999999998 293.219 C 76.21479999999998 309.78499999999997 89.76949999999998 323.344 106.33599999999998 323.344 z" stroke-linecap="round" />
</g>
		<g transform="matrix(0.5983578614204248 0 0 -0.5983578614204247 -40.51894631624043 -1.958483363032883)"  >
<path style="stroke: none; stroke-width: 1; stroke-dasharray: none; stroke-linecap: butt; stroke-dashoffset: 0; stroke-linejoin: miter; stroke-miterlimit: 4; fill: rgb(255,238,211); fill-rule: evenodd; opacity: 1;"  paint-order="stroke"  transform=" translate(-188.66199999999998, -230.89299999999997)" d="M 188.664 287.477 C 219.914 287.477 245.25 262.145 245.25 230.89499999999998 C 245.25 199.641 219.914 174.30899999999997 188.664 174.30899999999997 C 157.41 174.30899999999997 132.07399999999998 199.64099999999996 132.07399999999998 230.89499999999998 C 132.07399999999998 262.145 157.40999999999997 287.477 188.664 287.477" stroke-linecap="round" />
</g>
		<g transform="matrix(0.5983578614204248 0 0 -0.5983578614204247 -40.51894631624043 -1.958483363032883)"  >
<path style="stroke: rgb(89,58,8); stroke-width: 6.02454996; stroke-dasharray: none; stroke-linecap: round; stroke-dashoffset: 0; stroke-linejoin: round; stroke-miterlimit: 22.92560005; fill: none; fill-rule: nonzero; opacity: 1;"  paint-order="stroke"  transform=" translate(-188.66199999999998, -230.89299999999997)" d="M 188.664 287.477 C 219.914 287.477 245.25 262.145 245.25 230.89499999999998 C 245.25 199.641 219.914 174.30899999999997 188.664 174.30899999999997 C 157.41 174.30899999999997 132.07399999999998 199.64099999999996 132.07399999999998 230.89499999999998 C 132.07399999999998 262.145 157.40999999999997 287.477 188.664 287.477 z" stroke-linecap="round" />
</g>
		<g transform="matrix(0.5983578614204248 0 0 -0.5983578614204247 46.03591176966978 -1.958483363032883)"  >
<path style="stroke: none; stroke-width: 1; stroke-dasharray: none; stroke-linecap: butt; stroke-dashoffset: 0; stroke-linejoin: miter; stroke-miterlimit: 4; fill: rgb(255,238,211); fill-rule: evenodd; opacity: 1;"  paint-order="stroke"  transform=" translate(-333.316, -230.89299999999997)" d="M 333.316 287.477 C 364.566 287.477 389.902 262.145 389.902 230.89499999999998 C 389.902 199.641 364.566 174.30899999999997 333.316 174.30899999999997 C 302.063 174.30899999999997 276.72999999999996 199.64099999999996 276.72999999999996 230.89499999999998 C 276.72999999999996 262.145 302.063 287.477 333.316 287.477" stroke-linecap="round" />
</g>
		<g transform="matrix(0.5983578614204248 0 0 -0.5983578614204247 46.03591176966978 -1.958483363032883)"  >
<path style="stroke: rgb(89,58,8); stroke-width: 6.02454996; stroke-dasharray: none; stroke-linecap: round; stroke-dashoffset: 0; stroke-linejoin: round; stroke-miterlimit: 22.92560005; fill: none; fill-rule: nonzero; opacity: 1;"  paint-order="stroke"  transform=" translate(-333.316, -230.89299999999997)" d="M 333.316 287.477 C 364.566 287.477 389.902 262.145 389.902 230.89499999999998 C 389.902 199.641 364.566 174.30899999999997 333.316 174.30899999999997 C 302.063 174.30899999999997 276.72999999999996 199.64099999999996 276.72999999999996 230.89499999999998 C 276.72999999999996 262.145 302.063 287.477 333.316 287.477 z" stroke-linecap="round" />
</g>
		<g transform="matrix(0.5983578614204248 0 0 -0.5983578614204247 2.719290286791704 0.040778598728508086)"  >
<path style="stroke: rgb(89,58,8); stroke-width: 6.02454996; stroke-dasharray: none; stroke-linecap: round; stroke-dashoffset: 0; stroke-linejoin: round; stroke-miterlimit: 22.92560005; fill: none; fill-rule: nonzero; opacity: 1;"  paint-order="stroke"  transform=" translate(-260.9235, -227.55175207686688)" d="M 245.027 225.859 C 255.629 230.383 266.227 230.363 276.82 225.859" stroke-linecap="round" />
</g>
		<g transform="matrix(0.5983578614204248 0 0 -0.5983578614204247 -0.0011437301562864377 -51.25718756546172)"  >
<path style="stroke: rgb(89,58,8); stroke-width: 6.02454996; stroke-dasharray: none; stroke-linecap: round; stroke-dashoffset: 0; stroke-linejoin: round; stroke-miterlimit: 22.92560005; fill: none; fill-rule: nonzero; opacity: 1;"  paint-order="stroke"  transform=" translate(-256.37699999999995, -313.283)" d="M 367.996 323.344 C 348.80899999999997 319.602 329.92999999999995 324.18399999999997 311.80899999999997 349.14799999999997 C 306.551 327.145 314.42199999999997 311.109 332.53099999999995 299.734 C 303.47299999999996 303.633 282.953 316.55899999999997 271.96099999999996 339.58599999999996 C 262.77699999999993 316.94899999999996 269.71099999999996 296.60499999999996 290.29299999999995 278.215 C 256.06999999999994 283.41799999999995 232.86299999999994 303.29699999999997 217.76599999999996 334.008 C 212.58999999999997 312.406 220.80899999999997 293.711 240.07799999999997 277.418 C 203.83199999999997 286.47700000000003 177.22999999999996 302.09000000000003 167.551 329.223 C 157.402 334.96500000000003 149.84799999999998 331.94100000000003 144.75799999999998 323.344" stroke-linecap="round" />
</g>
		<g transform="matrix(0.5983578614204248 0 0 -0.5983578614204247 2.371046011444946 -71.82346145086399)"  >
<linearGradient id="SVGID_1_4_1222399" gradientUnits="userSpaceOnUse" gradientTransform="matrix(1 0 0 1 138.78100000000006 277.418)"  x1="0" y1="0" x2="0" y2="140">
<stop offset="0%" style="stop-color:rgb(48,35,174);stop-opacity: 1"/>
<stop offset="100%" style="stop-color:rgb(200,109,215);stop-opacity: 1"/>
</linearGradient>
<path style="stroke: none; stroke-width: 1; stroke-dasharray: none; stroke-linecap: butt; stroke-dashoffset: 0; stroke-linejoin: miter; stroke-miterlimit: 4; fill: url(#SVGID_1_4_1222399); fill-rule: evenodd; opacity: 1;"  paint-order="stroke"  transform=" translate(-260.34150000000005, -347.6541935806786)" d="M 332.531 299.734 C 314.422 311.109 306.551 327.145 311.809 349.14799999999997 C 329.93 324.18399999999997 348.809 319.602 367.99600000000004 323.344 L 381.90200000000004 323.344 C 335.059 442.758 184.35900000000004 455.883 138.78100000000003 323.344 L 144.75800000000004 323.344 C 149.84800000000004 331.941 157.40200000000004 334.965 167.55100000000004 329.223 C 177.23000000000005 302.09000000000003 203.83200000000005 286.47700000000003 240.07800000000003 277.418 C 220.80900000000003 293.711 212.59000000000003 312.406 217.76600000000002 334.00800000000004 C 232.86300000000003 303.297 256.07000000000005 283.418 290.293 278.21500000000003 C 269.711 296.605 262.777 316.949 271.961 339.586 C 282.95300000000003 316.559 303.473 303.63300000000004 332.531 299.73400000000004" stroke-linecap="round" />
</g>
		<g transform="matrix(0.5983578614204248 0 0 -0.5983578614204247 56.4257976753741 -14.374109808576009)"  >
<path style="stroke: rgb(89,58,8); stroke-width: 4.2072401; stroke-dasharray: none; stroke-linecap: round; stroke-dashoffset: 0; stroke-linejoin: round; stroke-miterlimit: 22.92560005; fill: none; fill-rule: nonzero; opacity: 1;"  paint-order="stroke"  transform=" translate(-350.68000000000006, -251.6425)" d="M 331.641 270.68 L 369.71900000000005 232.60500000000002" stroke-linecap="round" />
</g>
		<g transform="matrix(0.5983578614204248 0 0 -0.5983578614204247 61.52111404429962 -19.27107054644074)"  >
<path style="stroke: rgb(89,58,8); stroke-width: 4.2072401; stroke-dasharray: none; stroke-linecap: round; stroke-dashoffset: 0; stroke-linejoin: round; stroke-miterlimit: 22.92560005; fill: none; fill-rule: nonzero; opacity: 1;"  paint-order="stroke"  transform=" translate(-359.19550000000004, -259.8265)" d="M 346.836 272.184 L 371.555 247.46900000000002" stroke-linecap="round" />
</g>
		<g transform="matrix(0.5983578614204248 0 0 -0.5983578614204247 -63.3405245760668 57.26398597105367)"  >
<path style="stroke: rgb(89,58,8); stroke-width: 4.20940018; stroke-dasharray: none; stroke-linecap: round; stroke-dashoffset: 0; stroke-linejoin: round; stroke-miterlimit: 22.92560005; fill: none; fill-rule: nonzero; opacity: 1;"  paint-order="stroke"  transform=" translate(-150.52165000000002, -131.918)" d="M 247.887 105.828 L 53.1563 158.008" stroke-linecap="round" />
</g>
		<g transform="matrix(0.5983578614204248 0 0 -0.5983578614204247 -64.65182582936973 63.56909218209216)"  >
<path style="stroke: rgb(89,58,8); stroke-width: 4.20940018; stroke-dasharray: none; stroke-linecap: round; stroke-dashoffset: 0; stroke-linejoin: round; stroke-miterlimit: 22.92560005; fill: none; fill-rule: nonzero; opacity: 1;"  paint-order="stroke"  transform=" translate(-148.33015, -121.38065)" d="M 247.133 94.9063 L 49.5273 147.855" stroke-linecap="round" />
</g>
		<g transform="matrix(0.5983578614204248 0 0 -0.5983578614204247 -65.20225522609036 69.74893217484225)"  >
<path style="stroke: rgb(89,58,8); stroke-width: 4.20940018; stroke-dasharray: none; stroke-linecap: round; stroke-dashoffset: 0; stroke-linejoin: round; stroke-miterlimit: 22.92560005; fill: none; fill-rule: nonzero; opacity: 1;"  paint-order="stroke"  transform=" translate(-147.41025000000002, -111.05265)" d="M 248.258 84.0313 L 46.5625 138.074" stroke-linecap="round" />
</g>
		<g transform="matrix(0.5983578614204248 0 0 -0.5983578614204247 -66.40950204729222 75.49885204416188)"  >
<path style="stroke: rgb(89,58,8); stroke-width: 4.20940018; stroke-dasharray: none; stroke-linecap: round; stroke-dashoffset: 0; stroke-linejoin: round; stroke-miterlimit: 22.92560005; fill: none; fill-rule: nonzero; opacity: 1;"  paint-order="stroke"  transform=" translate(-145.39265, -101.44315)" d="M 246.758 74.2813 L 44.0273 128.605" stroke-linecap="round" />
</g>
		<g transform="matrix(0.5983578614204248 0 0 -0.5983578614204247 62.37287646003159 57.26398597105367)"  >
<path style="stroke: rgb(89,58,8); stroke-width: 4.20940018; stroke-dasharray: none; stroke-linecap: round; stroke-dashoffset: 0; stroke-linejoin: round; stroke-miterlimit: 22.92560005; fill: none; fill-rule: nonzero; opacity: 1;"  paint-order="stroke"  transform=" translate(-360.619, -131.918)" d="M 263.254 105.828 L 457.98400000000004 158.008" stroke-linecap="round" />
</g>
		<g transform="matrix(0.5983578614204248 0 0 -0.5983578614204247 63.68417771333446 63.56909218209216)"  >
<path style="stroke: rgb(89,58,8); stroke-width: 4.20940018; stroke-dasharray: none; stroke-linecap: round; stroke-dashoffset: 0; stroke-linejoin: round; stroke-miterlimit: 22.92560005; fill: none; fill-rule: nonzero; opacity: 1;"  paint-order="stroke"  transform=" translate(-362.8105, -121.38065)" d="M 264.008 94.9063 L 461.613 147.855" stroke-linecap="round" />
</g>
		<g transform="matrix(0.5983578614204248 0 0 -0.5983578614204247 64.2346669458413 69.74893217484225)"  >
<path style="stroke: rgb(89,58,8); stroke-width: 4.20940018; stroke-dasharray: none; stroke-linecap: round; stroke-dashoffset: 0; stroke-linejoin: round; stroke-miterlimit: 22.92560005; fill: none; fill-rule: nonzero; opacity: 1;"  paint-order="stroke"  transform=" translate(-363.7305, -111.05265)" d="M 262.883 84.0313 L 464.578 138.074" stroke-linecap="round" />
</g>
		<g transform="matrix(0.5983578614204248 0 0 -0.5983578614204247 65.44185393125696 75.49885204416188)"  >
<path style="stroke: rgb(89,58,8); stroke-width: 4.20940018; stroke-dasharray: none; stroke-linecap: round; stroke-dashoffset: 0; stroke-linejoin: round; stroke-miterlimit: 22.92560005; fill: none; fill-rule: nonzero; opacity: 1;"  paint-order="stroke"  transform=" translate(-365.74799999999993, -101.44315)" d="M 264.383 74.2813 L 467.11299999999994 128.60500000000002" stroke-linecap="round" />
</g>
</g>
</g>
</svg>